<?xml version="1.0" encoding="UTF-8"?><svg id="Camada_1" xmlns="http://www.w3.org/2000/svg" viewBox="0 0 857.84 304.72"><defs><style>.cls-1{stroke-width:3.38px;}.cls-1,.cls-2,.cls-3,.cls-4,.cls-5,.cls-6{fill:none;stroke:#90ceca;stroke-miterlimit:10;}.cls-2{stroke-width:3.33px;}.cls-3{stroke-width:2.82px;}.cls-7{fill:#90ceca;}.cls-4{stroke-width:3.38px;}.cls-5{stroke-width:3.35px;}.cls-6{stroke-width:5.02px;}</style></defs><ellipse class="cls-3" cx="218.89" cy="139.73" rx="5.92" ry="4.19" transform="translate(-34.69 195.7) rotate(-45)"/><circle class="cls-6" cx="328.63" cy="138.96" r="10.38"/><path class="cls-5" d="m225.44,139.66c27.81,0,47.53-.07,61.51-.16,31.72-.21,33.87-.55,33.87-.55"/><circle class="cls-5" cx="109.92" cy="140.44" r="5.92"/><path class="cls-5" d="m213.1,139.73c-28.21,0-48.22.07-62.4.16-32.18.21-34.36.55-34.36.55"/><circle class="cls-5" cx="218.89" cy="139.95" r="5.92"/><circle class="cls-5" cx="218.53" cy="30.34" r="5.92"/><path class="cls-5" d="m219.24,133.53c0-28.21-.07-48.22-.16-62.4-.21-32.18-.55-34.36-.55-34.36"/><circle class="cls-5" cx="120.85" cy="93.06" r="5.92"/><path class="cls-5" d="m214.52,136.34c-25.53-12.01-43.66-20.46-56.53-26.42-29.21-13.51-31.33-14.13-31.33-14.13"/><circle class="cls-5" cx="187.42" cy="90.6" r="2.96"/><path class="cls-5" d="m215.2,134.03c-7.28-11.73-12.5-20.01-16.23-25.86-8.48-13.27-9.33-14-9.33-14"/><circle class="cls-5" cx="165.8" cy="164.34" r="2.96"/><path class="cls-5" d="m212.62,142.75c-12.61,5.61-21.53,9.65-27.84,12.55-14.3,6.59-15.14,7.33-15.14,7.33"/><circle class="cls-5" cx="194.67" cy="193.23" r="2.96"/><path class="cls-5" d="m216.16,146.37c-5.93,12.47-10.07,21.34-12.97,27.64-6.57,14.31-6.72,15.42-6.72,15.42"/><circle class="cls-5" cx="259.18" cy="178.69" r="2.96"/><path class="cls-5" d="m222.23,142.75c9.76,9.76,16.73,16.64,21.7,21.48,11.28,10.99,12.28,11.5,12.28,11.5"/><ellipse class="cls-1" cx="273.76" cy="117.34" rx="3.01" ry="2.96" transform="translate(-23.86 105.86) rotate(-20.99)"/><path class="cls-1" d="m225.1,136.77c13.1-5.03,22.37-8.65,28.92-11.27,14.87-5.93,15.76-6.63,15.76-6.63"/><ellipse class="cls-4" cx="244.57" cy="86.74" rx="3.01" ry="2.96" transform="translate(56.97 266.03) rotate(-63.23)"/><path class="cls-4" d="m221.6,133.84c6.32-12.53,10.74-21.44,13.84-27.78,7.02-14.39,7.21-15.51,7.21-15.51"/><ellipse class="cls-2" cx="295.79" cy="62.49" rx="5.84" ry="5.92" transform="translate(42.44 227.45) rotate(-45)"/><path class="cls-2" d="m224.28,135.01c19.69-19.69,33.61-33.7,43.44-43.66,22.32-22.61,23.59-24.37,23.59-24.37"/><circle class="cls-5" cx="142.74" cy="217.25" r="5.92"/><path class="cls-5" d="m215.2,143.79c-19.95,19.95-34.05,34.14-44.01,44.24-22.61,22.91-23.91,24.68-23.91,24.68"/><circle class="cls-5" cx="220.01" cy="249.05" r="5.92"/><path class="cls-5" d="m219.31,145.87c0,28.21.07,48.22.16,62.4.21,32.18.55,34.36.55,34.36"/><path class="cls-7" d="m324.33,162.75h9.42v78.29h-9.42v-78.29Z"/><path class="cls-7" d="m391.42,235.33c-4.27-3.81-6.41-9.16-6.41-16.06v-47.87h-31.96v-8.65h31.96v-11.12l9.57-3.86v14.98h43.7v8.65h-43.7v47.25c0,2.27.59,4.45,1.77,6.56,1.18,2.11,2.91,3.84,5.17,5.17,2.26,1.34,4.89,2.01,7.88,2.01h29.96v8.65h-31.66c-6.59,0-12.02-1.9-16.29-5.71Z"/><path class="cls-7" d="m458.67,163.06h9.27v6.18c1.85-2.26,4.04-3.91,6.56-4.94,2.52-1.03,5.38-1.54,8.57-1.54h55.28v8.65h-54.2c-5.15,0-9.14,1.49-11.97,4.48-2.83,2.99-4.24,7-4.24,12.05v53.12h-9.27v-77.98Z"/><path class="cls-7" d="m558.65,239.42c-2.62-1.08-4.81-2.83-6.56-5.25-1.75-2.42-2.63-5.48-2.63-9.19v-11.58c0-3.19.72-6.1,2.16-8.72,1.44-2.62,3.53-4.73,6.25-6.33,2.73-1.59,5.84-2.39,9.34-2.39h65.78v-12.2c0-3.91-1.29-6.95-3.86-9.11-2.57-2.16-5.97-3.24-10.19-3.24h-64.86v-8.65h66.09c7.1,0,12.53,1.67,16.29,5.02,3.76,3.35,5.64,8.21,5.64,14.59v58.68h-9.11v-6.02c-.72,1.65-2.32,3.06-4.79,4.24-2.47,1.19-5.35,1.78-8.65,1.78h-52.66c-2.88,0-5.64-.54-8.26-1.62Zm67.33-9.03c2.32-1.34,4.07-3.04,5.25-5.1,1.18-2.06,1.78-4.17,1.78-6.33v-14.36h-63.47c-3.4,0-6.05.93-7.95,2.78-1.91,1.85-2.86,4.22-2.86,7.1v8.49c0,3.19.98,5.56,2.93,7.1,1.96,1.54,4.43,2.31,7.41,2.31h48.8c3.09,0,5.79-.67,8.11-2.01Z"/><path class="cls-7" d="m670.14,235.48c-4.27-3.7-6.41-9.01-6.41-15.9v-33.97c0-7.2,2.06-12.82,6.18-16.83,4.12-4.02,9.93-6.02,17.45-6.02h62.69v8.65h-61.46c-5.15,0-9.01,1.34-11.58,4.02-2.58,2.68-3.86,6.38-3.86,11.12v31.81c0,2.37.59,4.63,1.78,6.79,1.18,2.16,2.93,3.91,5.25,5.25,2.32,1.34,5.07,2.01,8.26,2.01h62.23v8.65h-63.77c-6.9,0-12.48-1.85-16.75-5.56Z"/></svg>